<svg xmlns="http://www.w3.org/2000/svg" viewBox="0 0 64 64" width="512" height="512"><path d="M62 29v-2a1 1 0 0 0-1-1h-6v36h6a1 1 0 0 0 1-1v-2a1 1 0 0 0-1-1 1 1 0 0 0 1-1v-2a1 1 0 0 0-1-1 1 1 0 0 0 1-1v-2a1 1 0 0 0-1-1 1 1 0 0 0 1-1v-2a1 1 0 0 0-1-1 1 1 0 0 0 1-1v-2a1 1 0 0 0-1-1 1 1 0 0 0 1-1v-2a1 1 0 0 0-1-1 1 1 0 0 0 1-1v-2a1 1 0 0 0-1-1 1 1 0 0 0 1-1v-2a1 1 0 0 0-1-1 1 1 0 0 0 1-1zM47 34h-6v28h6a1 1 0 0 0 1-1v-2a1 1 0 0 0-1-1 1 1 0 0 0 1-1v-2a1 1 0 0 0-1-1 1 1 0 0 0 1-1v-2a1 1 0 0 0-1-1 1 1 0 0 0 1-1v-2a1 1 0 0 0-1-1 1 1 0 0 0 1-1v-2a1 1 0 0 0-1-1 1 1 0 0 0 1-1v-2a1 1 0 0 0-1-1 1 1 0 0 0 1-1v-2a1 1 0 0 0-1-1zM34 45v-2a1 1 0 0 0-1-1h-6v20h6a1 1 0 0 0 1-1v-2a1 1 0 0 0-1-1 1 1 0 0 0 1-1v-2a1 1 0 0 0-1-1 1 1 0 0 0 1-1v-2a1 1 0 0 0-1-1 1 1 0 0 0 1-1v-2a1 1 0 0 0-1-1 1 1 0 0 0 1-1z" fill="#f0bc5e"/><path d="M53 1v2h6.394l-4.127 3.714a225.48 225.48 0 0 1-34.731 25.68l1.029 1.715A227.553 227.553 0 0 0 56.605 8.2L61 4.245V11h2V1H53z"/><path d="M19 50h-6v12h6a1 1 0 0 0 1-1v-2a1 1 0 0 0-1-1 1 1 0 0 0 1-1v-2a1 1 0 0 0-1-1 1 1 0 0 0 1-1v-2a1 1 0 0 0-1-1z" fill="#f0bc5e"/><path d="M3.435 43.9l-.87-1.8a227.169 227.169 0 0 0 7.952-4.036l.94 1.766a225.945 225.945 0 0 1-8.022 4.07z"/><circle cx="12" cy="29" r="11" fill="#f0bc5e"/><path d="M63 27c0-1.103-.897-2-2-2H49c-1.103 0-2 .897-2 2v2c0 .366.106.705.278 1A1.978 1.978 0 0 0 47 31v2H35c-1.103 0-2 .897-2 2v2c0 .366.106.705.278 1A1.978 1.978 0 0 0 33 39v2H21c-1.103 0-2 .897-2 2v2c0 .366.106.705.278 1A1.978 1.978 0 0 0 19 47v2H7c-1.103 0-2 .897-2 2v2c0 .366.106.705.278 1A1.978 1.978 0 0 0 5 55v2c0 .366.106.705.278 1A1.978 1.978 0 0 0 5 59v2c0 1.103.897 2 2 2h12c.366 0 .705-.106 1-.278.295.172.634.278 1 .278h12c.366 0 .705-.106 1-.278.295.172.634.278 1 .278h12c.366 0 .705-.106 1-.278.295.172.634.278 1 .278h12c1.103 0 2-.897 2-2v-2c0-.366-.106-.705-.278-1 .172-.295.278-.634.278-1v-2c0-.366-.106-.705-.278-1 .172-.295.278-.634.278-1v-2c0-.366-.106-.705-.278-1 .172-.295.278-.634.278-1v-2c0-.366-.106-.705-.278-1 .172-.295.278-.634.278-1v-2c0-.366-.106-.705-.278-1 .172-.295.278-.634.278-1v-2c0-.366-.106-.705-.278-1 .172-.295.278-.634.278-1v-2c0-.366-.106-.705-.278-1 .172-.295.278-.634.278-1v-2c0-.366-.106-.705-.278-1 .172-.295.278-.634.278-1v-2zm-14 0h12l.001 2H49v-2zm12.001 6H49v-2h12l.001 2zm0 4H49v-2h12l.001 2zm0 4H49v-2h12l.001 2zm0 4H49v-2h12l.001 2zm0 4H49v-2h12l.001 2zm0 4H49v-2h12l.001 2zm0 4H49v-2h12l.001 2zM7 55h12v2H7v-2zm14-8h12v2H21v-2zm14-8h12v2H35v-2zm12 14H35v-2h12v2zm0-4H35v-2h12v2zm0-6v2H35v-2h12zm-14 8v2H21v-2h12zm-12 4h12v2H21v-2zm14 0h12v2H35v-2zm0-20h12v2H35v-2zm-14 8h12v2H21v-2zM7 51h12v2H7v-2zm0 10v-2h12v2H7zm14 0v-2h12v2H21zm14 0v-2h12v2H35zm14 0v-2h12l.001 2H49zM12 28c-.551 0-1-.449-1-1s.449-1 1-1 1 .449 1 1h2a2.996 2.996 0 0 0-2-2.816V22h-2v2.184A2.996 2.996 0 0 0 9 27c0 1.654 1.346 3 3 3 .551 0 1 .449 1 1s-.449 1-1 1-1-.449-1-1H9c0 1.302.839 2.402 2 2.816V36h2v-2.184A2.996 2.996 0 0 0 15 31c0-1.654-1.346-3-3-3zM43 7c-1.654 0-3 1.346-3 3 0 .407.083.794.23 1.148l-5.808 5.227A2.966 2.966 0 0 0 33 16c-.807 0-1.537.324-2.077.844l-2.96-1.48c.015-.121.037-.24.037-.364 0-1.654-1.346-3-3-3s-3 1.346-3 3c0 .38.078.741.208 1.076l-2.722 2.333A2.97 2.97 0 0 0 18 18c-1.654 0-3 1.346-3 3s1.346 3 3 3 3-1.346 3-3c0-.38-.078-.741-.208-1.076l2.722-2.333c.44.253.943.409 1.486.409.807 0 1.537-.324 2.077-.844l2.96 1.48c-.015.121-.037.24-.037.364 0 1.654 1.346 3 3 3s3-1.346 3-3c0-.407-.083-.794-.23-1.148l5.808-5.227c.425.232.905.375 1.422.375 1.654 0 3-1.346 3-3s-1.346-3-3-3zM18 22c-.551 0-1-.449-1-1s.449-1 1-1 1 .449 1 1-.449 1-1 1zm7-6c-.551 0-1-.449-1-1s.449-1 1-1 1 .449 1 1-.449 1-1 1zm8 4c-.551 0-1-.449-1-1s.449-1 1-1 1 .449 1 1-.449 1-1 1zm10-9c-.551 0-1-.449-1-1s.449-1 1-1 1 .449 1 1-.449 1-1 1z"/></svg>